<?xml version="1.0" encoding="UTF-8"?>
<svg id="Layer_2" data-name="Layer 2" xmlns="http://www.w3.org/2000/svg" viewBox="0 0 979.37 568.8">
  <g id="Layer_1-2" data-name="Layer 1">
    <g>
      <path d="M280.35,9.54v10.44h-55.44v46.98h46.8v10.44h-46.8v57.96h-12.6V9.54h68.04Z" fill="#069"/>
      <path d="M301.32,59.49c4.02-7.62,9.6-13.5,16.74-17.64,7.14-4.14,15.21-6.21,24.21-6.21s17.43,2.16,24.21,6.48c6.78,4.32,11.67,9.84,14.67,16.56v-21.6h12.6v98.28h-12.6v-21.78c-3.12,6.72-8.07,12.27-14.85,16.65-6.78,4.38-14.85,6.57-24.21,6.57s-16.89-2.1-24.03-6.3c-7.14-4.2-12.72-10.14-16.74-17.82-4.02-7.68-6.03-16.56-6.03-26.64s2.01-18.93,6.03-26.55ZM376.29,65.34c-3.24-6-7.65-10.62-13.23-13.86-5.58-3.24-11.73-4.86-18.45-4.86s-13.2,1.56-18.72,4.68c-5.52,3.12-9.87,7.65-13.05,13.59-3.18,5.94-4.77,12.99-4.77,21.15s1.59,15.09,4.77,21.15c3.18,6.06,7.53,10.68,13.05,13.86,5.52,3.18,11.76,4.77,18.72,4.77s12.87-1.62,18.45-4.86c5.58-3.24,9.99-7.86,13.23-13.86,3.24-6,4.86-12.96,4.86-20.88s-1.62-14.88-4.86-20.88Z" fill="#069"/>
      <path d="M567.71,46.17c7.26,7.26,10.89,17.79,10.89,31.59v57.6h-12.42v-56.16c0-10.68-2.58-18.84-7.74-24.48-5.16-5.64-12.18-8.46-21.06-8.46s-16.62,3.06-22.14,9.18c-5.52,6.12-8.28,15-8.28,26.64v53.28h-12.42v-56.16c0-10.68-2.58-18.84-7.74-24.48-5.16-5.64-12.24-8.46-21.24-8.46s-16.62,3.06-22.14,9.18c-5.52,6.12-8.28,15-8.28,26.64v53.28h-12.6V37.08h12.6v16.92c3.12-6.12,7.56-10.77,13.32-13.95,5.76-3.18,12.18-4.77,19.26-4.77,8.52,0,15.99,2.04,22.41,6.12,6.42,4.08,11.07,10.08,13.95,18,2.64-7.8,7.17-13.77,13.59-17.91,6.42-4.14,13.71-6.21,21.87-6.21,11.52,0,20.91,3.63,28.17,10.89Z" fill="#069"/>
      <path d="M606.32,15.84c-1.8-1.8-2.7-4.02-2.7-6.66s.9-4.83,2.7-6.57c1.8-1.74,3.96-2.61,6.48-2.61s4.68.87,6.48,2.61c1.8,1.74,2.7,3.93,2.7,6.57s-.9,4.86-2.7,6.66c-1.8,1.8-3.96,2.7-6.48,2.7s-4.68-.9-6.48-2.7ZM619.1,37.08v98.28h-12.6V37.08h12.6Z" fill="#069"/>
      <path d="M660.32,2.16v133.2h-12.6V2.16h12.6Z" fill="#069"/>
      <path d="M769.94,37.08l-58.32,144.54h-13.14l19.08-46.8-40.32-97.74h13.86l33.48,83.88,32.4-83.88h12.96Z" fill="#069"/>
      <path d="M11.97,344.97c-7.14-5.22-11.13-12.33-11.97-21.33h12.96c.6,5.52,3.21,9.99,7.83,13.41,4.62,3.42,10.83,5.13,18.63,5.13,6.84,0,12.21-1.62,16.11-4.86,3.9-3.24,5.85-7.26,5.85-12.06,0-3.36-1.08-6.12-3.24-8.28-2.16-2.16-4.89-3.87-8.19-5.13-3.3-1.26-7.77-2.61-13.41-4.05-7.32-1.92-13.26-3.84-17.82-5.76-4.56-1.92-8.43-4.77-11.61-8.55-3.18-3.78-4.77-8.85-4.77-15.21,0-4.8,1.44-9.24,4.32-13.32,2.88-4.08,6.96-7.32,12.24-9.72,5.28-2.4,11.28-3.6,18-3.6,10.56,0,19.08,2.67,25.56,8.01,6.48,5.34,9.96,12.69,10.44,22.05h-12.6c-.36-5.76-2.61-10.41-6.75-13.95-4.14-3.54-9.81-5.31-17.01-5.31-6.36,0-11.52,1.5-15.48,4.5-3.96,3-5.94,6.72-5.94,11.16,0,3.84,1.17,6.99,3.51,9.45,2.34,2.46,5.25,4.38,8.73,5.76,3.48,1.38,8.16,2.91,14.04,4.59,7.08,1.92,12.72,3.78,16.92,5.58,4.2,1.8,7.8,4.44,10.8,7.92,3,3.48,4.56,8.1,4.68,13.86,0,5.28-1.44,9.99-4.32,14.13-2.88,4.14-6.9,7.41-12.06,9.81-5.16,2.4-11.1,3.6-17.82,3.6-11.28,0-20.49-2.61-27.63-7.83Z" fill="#069"/>
      <path d="M113.94,263.7v61.02c0,6,1.14,10.14,3.42,12.42,2.28,2.28,6.3,3.42,12.06,3.42h11.52v10.8h-13.5c-8.88,0-15.48-2.07-19.8-6.21-4.32-4.14-6.48-10.95-6.48-20.43v-61.02h-13.68v-10.62h13.68v-24.66h12.78v24.66h27v10.62h-27Z" fill="#069"/>
      <path d="M179.73,346.59c-7.38-4.14-13.2-10.02-17.46-17.64-4.26-7.62-6.39-16.53-6.39-26.73s2.16-19.11,6.48-26.73c4.32-7.62,10.2-13.5,17.64-17.64,7.44-4.14,15.78-6.21,25.02-6.21s17.61,2.07,25.11,6.21c7.5,4.14,13.38,10.02,17.64,17.64,4.26,7.62,6.39,16.53,6.39,26.73s-2.16,18.96-6.48,26.64c-4.32,7.68-10.26,13.59-17.82,17.73-7.56,4.14-15.96,6.21-25.2,6.21s-17.55-2.07-24.93-6.21ZM222.66,337.41c5.52-2.94,9.99-7.38,13.41-13.32s5.13-13.23,5.13-21.87-1.68-15.93-5.04-21.87c-3.36-5.94-7.8-10.38-13.32-13.32-5.52-2.94-11.52-4.41-18-4.41s-12.48,1.47-18,4.41c-5.52,2.94-9.93,7.38-13.23,13.32-3.3,5.94-4.95,13.23-4.95,21.87s1.65,15.93,4.95,21.87c3.3,5.94,7.68,10.38,13.14,13.32,5.46,2.94,11.43,4.41,17.91,4.41s12.48-1.47,18-4.41Z" fill="#069"/>
      <path d="M302.49,256.32c5.7-3.36,12.69-5.04,20.97-5.04v13.14h-3.42c-9.12,0-16.44,2.46-21.96,7.38-5.52,4.92-8.28,13.14-8.28,24.66v54.9h-12.6v-98.28h12.6v17.46c2.76-6.12,6.99-10.86,12.69-14.22Z" fill="#069"/>
      <path d="M342.18,231.84c-1.8-1.8-2.7-4.02-2.7-6.66s.9-4.83,2.7-6.57c1.8-1.74,3.96-2.61,6.48-2.61s4.68.87,6.48,2.61c1.8,1.74,2.7,3.93,2.7,6.57s-.9,4.86-2.7,6.66c-1.8,1.8-3.96,2.7-6.48,2.7s-4.68-.9-6.48-2.7ZM354.96,253.08v98.28h-12.6v-98.28h12.6Z" fill="#069"/>
      <path d="M472.13,307.08h-81.54c.36,7.44,2.16,13.8,5.4,19.08,3.24,5.28,7.5,9.27,12.78,11.97,5.28,2.7,11.04,4.05,17.28,4.05,8.16,0,15.03-1.98,20.61-5.94,5.58-3.96,9.27-9.3,11.07-16.02h13.32c-2.4,9.6-7.53,17.43-15.39,23.49-7.86,6.06-17.73,9.09-29.61,9.09-9.24,0-17.52-2.07-24.84-6.21-7.32-4.14-13.05-10.02-17.19-17.64-4.14-7.62-6.21-16.53-6.21-26.73s2.04-19.14,6.12-26.82c4.08-7.68,9.78-13.56,17.1-17.64,7.32-4.08,15.66-6.12,25.02-6.12s17.55,2.04,24.57,6.12c7.02,4.08,12.42,9.57,16.2,16.47,3.78,6.9,5.67,14.55,5.67,22.95,0,4.32-.12,7.62-.36,9.9ZM455.3,278.1c-3.06-5.16-7.23-9.06-12.51-11.7-5.28-2.64-11.04-3.96-17.28-3.96-9.36,0-17.34,3-23.94,9-6.6,6-10.26,14.46-10.98,25.38h69.12c.12-7.32-1.35-13.56-4.41-18.72Z" fill="#069"/>
      <path d="M501.74,344.97c-7.14-5.22-11.13-12.33-11.97-21.33h12.96c.6,5.52,3.21,9.99,7.83,13.41,4.62,3.42,10.83,5.13,18.63,5.13,6.84,0,12.21-1.62,16.11-4.86,3.9-3.24,5.85-7.26,5.85-12.06,0-3.36-1.08-6.12-3.24-8.28-2.16-2.16-4.89-3.87-8.19-5.13-3.3-1.26-7.77-2.61-13.41-4.05-7.32-1.92-13.26-3.84-17.82-5.76-4.56-1.92-8.43-4.77-11.61-8.55-3.18-3.78-4.77-8.85-4.77-15.21,0-4.8,1.44-9.24,4.32-13.32,2.88-4.08,6.96-7.32,12.24-9.72,5.28-2.4,11.28-3.6,18-3.6,10.56,0,19.08,2.67,25.56,8.01,6.48,5.34,9.96,12.69,10.44,22.05h-12.6c-.36-5.76-2.61-10.41-6.75-13.95-4.14-3.54-9.81-5.31-17.01-5.31-6.36,0-11.52,1.5-15.48,4.5-3.96,3-5.94,6.72-5.94,11.16,0,3.84,1.17,6.99,3.51,9.45,2.34,2.46,5.25,4.38,8.73,5.76,3.48,1.38,8.16,2.91,14.04,4.59,7.08,1.92,12.72,3.78,16.92,5.58,4.2,1.8,7.8,4.44,10.8,7.92,3,3.48,4.56,8.1,4.68,13.86,0,5.28-1.44,9.99-4.32,14.13-2.88,4.14-6.9,7.41-12.06,9.81-5.16,2.4-11.1,3.6-17.82,3.6-11.28,0-20.49-2.61-27.63-7.83Z" fill="#069"/>
      <path d="M641.33,275.49c5.4-7.62,12.03-13.5,19.89-17.64,7.86-4.14,16.29-6.21,25.29-6.21s17.04,2.16,23.04,6.48c6,4.32,9.9,9.84,11.7,16.56l3.78-21.6h12.6l-17.28,98.28h-12.6l3.78-21.78c-4.08,6.72-9.93,12.27-17.55,16.65-7.62,4.38-16.11,6.57-25.47,6.57-7.8,0-14.64-1.62-20.52-4.86-5.88-3.24-10.44-7.83-13.68-13.77-3.24-5.94-4.86-12.93-4.86-20.97,0-3.48.36-7.2,1.08-11.16,1.8-10.08,5.4-18.93,10.8-26.55ZM717.29,293.22c0-9.36-2.82-16.8-8.46-22.32-5.64-5.52-12.96-8.28-21.96-8.28-6.96,0-13.47,1.56-19.53,4.68-6.06,3.12-11.19,7.65-15.39,13.59-4.2,5.94-7.02,12.99-8.46,21.15-.6,3.6-.9,6.66-.9,9.18,0,9.48,2.79,16.95,8.37,22.41,5.58,5.46,12.87,8.19,21.87,8.19,6.72,0,13.17-1.62,19.35-4.86,6.18-3.24,11.4-7.86,15.66-13.86,4.26-6,7.11-12.96,8.55-20.88.6-3.36.9-6.36.9-9Z" fill="#333"/>
      <path d="M837.26,259.47c6.06,5.46,9.09,13.41,9.09,23.85,0,3.84-.3,7.32-.9,10.44l-10.26,57.6h-12.42l9.9-56.16c.48-2.76.72-5.7.72-8.82,0-7.92-2.16-13.92-6.48-18-4.32-4.08-10.38-6.12-18.18-6.12-9.48,0-17.58,3-24.3,9-6.72,6-11.1,14.82-13.14,26.46v-.54l-9.54,54.18h-12.6l17.28-98.28h12.6l-3.06,16.92c4.2-6,9.54-10.62,16.02-13.86s13.5-4.86,21.06-4.86c10.08,0,18.15,2.73,24.21,8.19Z" fill="#333"/>
      <path d="M876.77,275.49c5.4-7.62,12.06-13.5,19.98-17.64,7.92-4.14,16.38-6.21,25.38-6.21s16.05,2.1,22.23,6.3c6.18,4.2,10.35,9.66,12.51,16.38l9.9-56.16h12.6l-23.58,133.2h-12.6l3.96-21.96c-4.32,6.84-10.26,12.45-17.82,16.83-7.56,4.38-15.96,6.57-25.2,6.57-11.88,0-21.39-3.57-28.53-10.71-7.14-7.14-10.71-16.77-10.71-28.89,0-3.48.36-7.2,1.08-11.16,1.8-10.08,5.4-18.93,10.8-26.55ZM952.73,293.22c0-9.36-2.82-16.8-8.46-22.32-5.64-5.52-12.96-8.28-21.96-8.28-6.96,0-13.47,1.56-19.53,4.68-6.06,3.12-11.19,7.65-15.39,13.59-4.2,5.94-7.02,12.99-8.46,21.15-.6,3.6-.9,6.66-.9,9.18,0,9.48,2.79,16.95,8.37,22.41,5.58,5.46,12.87,8.19,21.87,8.19,6.72,0,13.17-1.62,19.35-4.86,6.18-3.24,11.4-7.86,15.66-13.86,4.26-6,7.11-12.96,8.55-20.88.6-3.36.9-6.36.9-9Z" fill="#333"/>
      <path d="M141.75,472.32c5.7-3.36,12.69-5.04,20.97-5.04v13.14h-3.42c-9.12,0-16.44,2.46-21.96,7.38-5.52,4.92-8.28,13.14-8.28,24.66v54.9h-12.6v-98.28h12.6v17.46c2.76-6.12,6.99-10.86,12.69-14.22Z" fill="#069"/>
      <path d="M270.18,523.08h-81.54c.36,7.44,2.16,13.8,5.4,19.08,3.24,5.28,7.5,9.27,12.78,11.97,5.28,2.7,11.04,4.05,17.28,4.05,8.16,0,15.03-1.98,20.61-5.94,5.58-3.96,9.27-9.3,11.07-16.02h13.32c-2.4,9.6-7.53,17.43-15.39,23.49-7.86,6.06-17.73,9.09-29.61,9.09-9.24,0-17.52-2.07-24.84-6.21-7.32-4.14-13.05-10.02-17.19-17.64-4.14-7.62-6.21-16.53-6.21-26.73s2.04-19.14,6.12-26.82c4.08-7.68,9.78-13.56,17.1-17.64,7.32-4.08,15.66-6.12,25.02-6.12s17.55,2.04,24.57,6.12c7.02,4.08,12.42,9.57,16.2,16.47,3.78,6.9,5.67,14.55,5.67,22.95,0,4.32-.12,7.62-.36,9.9ZM253.35,494.1c-3.06-5.16-7.23-9.06-12.51-11.7-5.28-2.64-11.04-3.96-17.28-3.96-9.36,0-17.34,3-23.94,9-6.6,6-10.26,14.46-10.98,25.38h69.12c.12-7.32-1.35-13.56-4.41-18.72Z" fill="#069"/>
      <path d="M306.18,434.16v133.2h-12.6v-133.2h12.6Z" fill="#069"/>
      <path d="M335.06,491.49c4.02-7.62,9.6-13.5,16.74-17.64,7.14-4.14,15.21-6.21,24.21-6.21s17.43,2.16,24.21,6.48c6.78,4.32,11.67,9.84,14.67,16.56v-21.6h12.6v98.28h-12.6v-21.78c-3.12,6.72-8.07,12.27-14.85,16.65-6.78,4.38-14.85,6.57-24.21,6.57s-16.89-2.1-24.03-6.3c-7.14-4.2-12.72-10.14-16.74-17.82-4.02-7.68-6.03-16.56-6.03-26.64s2.01-18.93,6.03-26.55ZM410.04,497.34c-3.24-6-7.65-10.62-13.23-13.86s-11.73-4.86-18.45-4.86-13.2,1.56-18.72,4.68c-5.52,3.12-9.87,7.65-13.05,13.59-3.18,5.94-4.77,12.99-4.77,21.15s1.59,15.09,4.77,21.15c3.18,6.06,7.53,10.68,13.05,13.86,5.52,3.18,11.76,4.77,18.72,4.77s12.87-1.62,18.45-4.86c5.58-3.24,9.99-7.86,13.23-13.86,3.24-6,4.86-12.96,4.86-20.88s-1.62-14.88-4.86-20.88Z" fill="#069"/>
      <path d="M472.67,479.7v61.02c0,6,1.14,10.14,3.42,12.42,2.28,2.28,6.3,3.42,12.06,3.42h11.52v10.8h-13.5c-8.88,0-15.48-2.07-19.8-6.21-4.32-4.14-6.48-10.95-6.48-20.43v-61.02h-13.68v-10.62h13.68v-24.66h12.78v24.66h27v10.62h-27Z" fill="#069"/>
      <path d="M520.19,447.84c-1.8-1.8-2.7-4.02-2.7-6.66s.9-4.83,2.7-6.57c1.8-1.74,3.96-2.61,6.48-2.61s4.68.87,6.48,2.61c1.8,1.74,2.7,3.93,2.7,6.57s-.9,4.86-2.7,6.66-3.96,2.7-6.48,2.7-4.68-.9-6.48-2.7ZM532.97,469.08v98.28h-12.6v-98.28h12.6Z" fill="#069"/>
      <path d="M579.68,562.59c-7.38-4.14-13.2-10.02-17.46-17.64-4.26-7.62-6.39-16.53-6.39-26.73s2.16-19.11,6.48-26.73c4.32-7.62,10.2-13.5,17.64-17.64,7.44-4.14,15.78-6.21,25.02-6.21s17.61,2.07,25.11,6.21c7.5,4.14,13.38,10.02,17.64,17.64,4.26,7.62,6.39,16.53,6.39,26.73s-2.16,18.96-6.48,26.64c-4.32,7.68-10.26,13.59-17.82,17.73-7.56,4.14-15.96,6.21-25.2,6.21s-17.55-2.07-24.93-6.21ZM622.61,553.41c5.52-2.94,9.99-7.38,13.41-13.32,3.42-5.94,5.13-13.23,5.13-21.87s-1.68-15.93-5.04-21.87c-3.36-5.94-7.8-10.38-13.32-13.32-5.52-2.94-11.52-4.41-18-4.41s-12.48,1.47-18,4.41c-5.52,2.94-9.93,7.38-13.23,13.32-3.3,5.94-4.95,13.23-4.95,21.87s1.65,15.93,4.95,21.87c3.3,5.94,7.68,10.38,13.14,13.32,5.46,2.94,11.43,4.41,17.91,4.41s12.48-1.47,18-4.41Z" fill="#069"/>
      <path d="M752.03,478.17c7.44,7.26,11.16,17.79,11.16,31.59v57.6h-12.42v-56.16c0-10.68-2.67-18.84-8.01-24.48-5.34-5.64-12.63-8.46-21.87-8.46s-17.04,3-22.68,9c-5.64,6-8.46,14.82-8.46,26.46v53.64h-12.6v-98.28h12.6v16.74c3.12-6,7.62-10.59,13.5-13.77,5.88-3.18,12.54-4.77,19.98-4.77,11.76,0,21.36,3.63,28.8,10.89Z" fill="#069"/>
      <path d="M797.3,560.97c-7.14-5.22-11.13-12.33-11.97-21.33h12.96c.6,5.52,3.21,9.99,7.83,13.41,4.62,3.42,10.83,5.13,18.63,5.13,6.84,0,12.21-1.62,16.11-4.86,3.9-3.24,5.85-7.26,5.85-12.06,0-3.36-1.08-6.12-3.24-8.28s-4.89-3.87-8.19-5.13c-3.3-1.26-7.77-2.61-13.41-4.05-7.32-1.92-13.26-3.84-17.82-5.76-4.56-1.92-8.43-4.77-11.61-8.55-3.18-3.78-4.77-8.85-4.77-15.21,0-4.8,1.44-9.24,4.32-13.32,2.88-4.08,6.96-7.32,12.24-9.72,5.28-2.4,11.28-3.6,18-3.6,10.56,0,19.08,2.67,25.56,8.01,6.48,5.34,9.96,12.69,10.44,22.05h-12.6c-.36-5.76-2.61-10.41-6.75-13.95-4.14-3.54-9.81-5.31-17.01-5.31-6.36,0-11.52,1.5-15.48,4.5-3.96,3-5.94,6.72-5.94,11.16,0,3.84,1.17,6.99,3.51,9.45,2.34,2.46,5.25,4.38,8.73,5.76,3.48,1.38,8.16,2.91,14.04,4.59,7.08,1.92,12.72,3.78,16.92,5.58,4.2,1.8,7.8,4.44,10.8,7.92,3,3.48,4.56,8.1,4.68,13.86,0,5.28-1.44,9.99-4.32,14.13-2.88,4.14-6.9,7.41-12.06,9.81-5.16,2.4-11.1,3.6-17.82,3.6-11.28,0-20.49-2.61-27.63-7.83Z" fill="#069"/>
    </g>
  </g>
</svg>