<svg xmlns="http://www.w3.org/2000/svg" data-name="Layer 2" viewBox="0 0 979.37 568.8"><g data-name="Layer 1"><path fill="#069" d="M280.35 9.54v10.44h-55.44v46.98h46.8V77.4h-46.8v57.96h-12.6V9.54zM301.32 59.49q6.03-11.43 16.74-17.64t24.21-6.21c13.5 0 17.43 2.16 24.21 6.48q10.17 6.48 14.67 16.56v-21.6h12.6v98.28h-12.6v-21.78q-4.68 10.08-14.85 16.65t-24.21 6.57c-14.04 0-16.89-2.1-24.03-6.3q-10.71-6.3-16.74-17.82t-6.03-26.64c0-15.12 2.01-18.93 6.03-26.55m74.97 5.85q-4.86-9-13.23-13.86t-18.45-4.86c-10.08 0-13.2 1.56-18.72 4.68q-8.28 4.68-13.05 13.59t-4.77 21.15c0 12.24 1.59 15.09 4.77 21.15q4.77 9.09 13.05 13.86t18.72 4.77c10.44 0 12.87-1.62 18.45-4.86q8.37-4.86 13.23-13.86t4.86-20.88c0-11.88-1.62-14.88-4.86-20.88M567.71 46.17q10.89 10.89 10.89 31.59v57.6h-12.42V79.2q0-16.02-7.74-24.48t-21.06-8.46c-13.32 0-16.62 3.06-22.14 9.18q-8.28 9.18-8.28 26.64v53.28h-12.42V79.2q0-16.02-7.74-24.48t-21.24-8.46c-13.5 0-16.62 3.06-22.14 9.18q-8.28 9.18-8.28 26.64v53.28h-12.6V37.08h12.6V54q4.68-9.18 13.32-13.95t19.26-4.77q12.78 0 22.41 6.12t13.95 18q3.96-11.7 13.59-17.91t21.87-6.21q17.28 0 28.17 10.89M606.32 15.84q-2.7-2.7-2.7-6.66c0-3.96.9-4.83 2.7-6.57Q609.02 0 612.8 0c3.78 0 4.68.87 6.48 2.61q2.7 2.61 2.7 6.57c0 3.96-.9 4.86-2.7 6.66q-2.7 2.7-6.48 2.7c-3.78 0-4.68-.9-6.48-2.7m12.78 21.24v98.28h-12.6V37.08zM660.32 2.16v133.2h-12.6V2.16zM769.94 37.08l-58.32 144.54h-13.14l19.08-46.8-40.32-97.74h13.86l33.48 83.88 32.4-83.88zM11.97 344.97Q1.26 337.14 0 323.64h12.96q.9 8.28 7.83 13.41t18.63 5.13q10.26 0 16.11-4.86t5.85-12.06q0-5.04-3.24-8.28t-8.19-5.13-13.41-4.05q-10.98-2.88-17.82-5.76t-11.61-8.55-4.77-15.21q0-7.2 4.32-13.32t12.24-9.72 18-3.6q15.84 0 25.56 8.01T72.9 281.7H60.3q-.54-8.64-6.75-13.95t-17.01-5.31q-9.54 0-15.48 4.5t-5.94 11.16q0 5.76 3.51 9.45t8.73 5.76 14.04 4.59q10.62 2.88 16.92 5.58t10.8 7.92 4.68 13.86q0 7.92-4.32 14.13t-12.06 9.81-17.82 3.6q-16.92 0-27.63-7.83M113.94 263.7v61.02q0 9 3.42 12.42t12.06 3.42h11.52v10.8h-13.5q-13.32 0-19.8-6.21t-6.48-20.43V263.7H87.48v-10.62h13.68v-24.66h12.78v24.66h27v10.62zM179.73 346.59q-11.07-6.21-17.46-17.64t-6.39-26.73c0-15.3 2.16-19.11 6.48-26.73q6.48-11.43 17.64-17.64t25.02-6.21c13.86 0 17.61 2.07 25.11 6.21q11.25 6.21 17.64 17.64t6.39 26.73c0 15.3-2.16 18.96-6.48 26.64q-6.48 11.52-17.82 17.73t-25.2 6.21c-13.86 0-17.55-2.07-24.93-6.21m42.93-9.18q8.28-4.41 13.41-13.32c5.13-8.91 5.13-13.23 5.13-21.87s-1.68-15.93-5.04-21.87q-5.04-8.91-13.32-13.32t-18-4.41c-9.72 0-12.48 1.47-18 4.41q-8.28 4.41-13.23 13.32t-4.95 21.87c0 12.96 1.65 15.93 4.95 21.87q4.95 8.91 13.14 13.32t17.91 4.41c9.72 0 12.48-1.47 18-4.41M302.49 256.32q8.55-5.04 20.97-5.04v13.14h-3.42q-13.68 0-21.96 7.38t-8.28 24.66v54.9h-12.6v-98.28h12.6v17.46q4.14-9.18 12.69-14.22M342.18 231.84q-2.7-2.7-2.7-6.66c0-3.96.9-4.83 2.7-6.57q2.7-2.61 6.48-2.61c3.78 0 4.68.87 6.48 2.61q2.7 2.61 2.7 6.57c0 3.96-.9 4.86-2.7 6.66q-2.7 2.7-6.48 2.7c-3.78 0-4.68-.9-6.48-2.7m12.78 21.24v98.28h-12.6v-98.28zM472.13 307.08h-81.54q.54 11.16 5.4 19.08t12.78 11.97 17.28 4.05q12.24 0 20.61-5.94t11.07-16.02h13.32q-3.6 14.4-15.39 23.49t-29.61 9.09q-13.86 0-24.84-6.21t-17.19-17.64-6.21-26.73c0-15.3 2.04-19.14 6.12-26.82q6.12-11.52 17.1-17.64t25.02-6.12c14.04 0 17.55 2.04 24.57 6.12q10.53 6.12 16.2 16.47t5.67 22.95q0 6.48-.36 9.9M455.3 278.1q-4.59-7.74-12.51-11.7t-17.28-3.96q-14.04 0-23.94 9t-10.98 25.38h69.12q.18-10.98-4.41-18.72M501.74 344.97q-10.71-7.83-11.97-21.33h12.96q.9 8.28 7.83 13.41t18.63 5.13q10.26 0 16.11-4.86t5.85-12.06q0-5.04-3.24-8.28t-8.19-5.13-13.41-4.05q-10.98-2.88-17.82-5.76t-11.61-8.55-4.77-15.21q0-7.2 4.32-13.32t12.24-9.72 18-3.6q15.84 0 25.56 8.01t10.44 22.05h-12.6q-.54-8.64-6.75-13.95t-17.01-5.31q-9.54 0-15.48 4.5t-5.94 11.16q0 5.76 3.51 9.45t8.73 5.76 14.04 4.59q10.62 2.88 16.92 5.58t10.8 7.92 4.68 13.86q0 7.92-4.32 14.13t-12.06 9.81-17.82 3.6q-16.92 0-27.63-7.83"/><path fill="#333" d="M641.33 275.49q8.1-11.43 19.89-17.64t25.29-6.21c13.5 0 17.04 2.16 23.04 6.48q9 6.48 11.7 16.56l3.78-21.6h12.6l-17.28 98.28h-12.6l3.78-21.78q-6.12 10.08-17.55 16.65t-25.47 6.57q-11.7 0-20.52-4.86t-13.68-13.77-4.86-20.97q0-5.22 1.08-11.16 2.7-15.12 10.8-26.55m75.96 17.73q0-14.04-8.46-22.32t-21.96-8.28q-10.44 0-19.53 4.68t-15.39 13.59-8.46 21.15q-.9 5.4-.9 9.18 0 14.22 8.37 22.41t21.87 8.19q10.08 0 19.35-4.86t15.66-13.86 8.55-20.88q.9-5.04.9-9M837.26 259.47q9.09 8.19 9.09 23.85 0 5.76-.9 10.44l-10.26 57.6h-12.42l9.9-56.16q.72-4.14.72-8.82 0-11.88-6.48-18t-18.18-6.12q-14.22 0-24.3 9t-13.14 26.46v-.54l-9.54 54.18h-12.6l17.28-98.28h12.6L775.97 270q6.3-9 16.02-13.86c9.72-4.86 13.5-4.86 21.06-4.86q15.12 0 24.21 8.19M876.77 275.49q8.1-11.43 19.98-17.64t25.38-6.21c13.5 0 16.05 2.1 22.23 6.3q9.27 6.3 12.51 16.38l9.9-56.16h12.6l-23.58 133.2h-12.6l3.96-21.96q-6.48 10.26-17.82 16.83t-25.2 6.57q-17.82 0-28.53-10.71t-10.71-28.89q0-5.22 1.08-11.16 2.7-15.12 10.8-26.55m75.96 17.73q0-14.04-8.46-22.32t-21.96-8.28q-10.44 0-19.53 4.68t-15.39 13.59-8.46 21.15q-.9 5.4-.9 9.18 0 14.22 8.37 22.41t21.87 8.19q10.08 0 19.35-4.86t15.66-13.86 8.55-20.88q.9-5.04.9-9"/><path fill="#069" d="M141.75 472.32q8.55-5.04 20.97-5.04v13.14h-3.42q-13.68 0-21.96 7.38t-8.28 24.66v54.9h-12.6v-98.28h12.6v17.46q4.14-9.18 12.69-14.22M270.18 523.08h-81.54q.54 11.16 5.4 19.08t12.78 11.97 17.28 4.05q12.24 0 20.61-5.94t11.07-16.02h13.32q-3.6 14.4-15.39 23.49t-29.61 9.09q-13.86 0-24.84-6.21t-17.19-17.64-6.21-26.73c0-15.3 2.04-19.14 6.12-26.82q6.12-11.52 17.1-17.64t25.02-6.12c14.04 0 17.55 2.04 24.57 6.12q10.53 6.12 16.2 16.47t5.67 22.95q0 6.48-.36 9.9m-16.83-28.98q-4.59-7.74-12.51-11.7t-17.28-3.96q-14.04 0-23.94 9t-10.98 25.38h69.12q.18-10.98-4.41-18.72M306.18 434.16v133.2h-12.6v-133.2zM335.06 491.49q6.03-11.43 16.74-17.64t24.21-6.21c13.5 0 17.43 2.16 24.21 6.48q10.17 6.48 14.67 16.56v-21.6h12.6v98.28h-12.6v-21.78q-4.68 10.08-14.85 16.65t-24.21 6.57c-14.04 0-16.89-2.1-24.03-6.3q-10.71-6.3-16.74-17.82t-6.03-26.64c0-15.12 2.01-18.93 6.03-26.55m74.98 5.85q-4.86-9-13.23-13.86c-8.37-4.86-11.73-4.86-18.45-4.86s-13.2 1.56-18.72 4.68q-8.28 4.68-13.05 13.59t-4.77 21.15c0 12.24 1.59 15.09 4.77 21.15q4.77 9.09 13.05 13.86t18.72 4.77c10.44 0 12.87-1.62 18.45-4.86q8.37-4.86 13.23-13.86t4.86-20.88c0-11.88-1.62-14.88-4.86-20.88M472.67 479.7v61.02q0 9 3.42 12.42t12.06 3.42h11.52v10.8h-13.5q-13.32 0-19.8-6.21t-6.48-20.43V479.7h-13.68v-10.62h13.68v-24.66h12.78v24.66h27v10.62zM520.19 447.84q-2.7-2.7-2.7-6.66c0-3.96.9-4.83 2.7-6.57q2.7-2.61 6.48-2.61c3.78 0 4.68.87 6.48 2.61q2.7 2.61 2.7 6.57c0 3.96-.9 4.86-2.7 6.66s-3.96 2.7-6.48 2.7-4.68-.9-6.48-2.7m12.78 21.24v98.28h-12.6v-98.28zM579.68 562.59q-11.07-6.21-17.46-17.64t-6.39-26.73c0-15.3 2.16-19.11 6.48-26.73q6.48-11.43 17.64-17.64t25.02-6.21c13.86 0 17.61 2.07 25.11 6.21q11.25 6.21 17.64 17.64t6.39 26.73c0 15.3-2.16 18.96-6.48 26.64q-6.48 11.52-17.82 17.73t-25.2 6.21c-13.86 0-17.55-2.07-24.93-6.21m42.93-9.18q8.28-4.41 13.41-13.32t5.13-21.87c0-12.96-1.68-15.93-5.04-21.87q-5.04-8.91-13.32-13.32t-18-4.41c-9.72 0-12.48 1.47-18 4.41q-8.28 4.41-13.23 13.32t-4.95 21.87c0 12.96 1.65 15.93 4.95 21.87q4.95 8.91 13.14 13.32t17.91 4.41c9.72 0 12.48-1.47 18-4.41M752.03 478.17q11.16 10.89 11.16 31.59v57.6h-12.42V511.2q0-16.02-8.01-24.48t-21.87-8.46c-13.86 0-17.04 3-22.68 9q-8.46 9-8.46 26.46v53.64h-12.6v-98.28h12.6v16.74q4.68-9 13.5-13.77t19.98-4.77q17.64 0 28.8 10.89M797.3 560.97q-10.71-7.83-11.97-21.33h12.96q.9 8.28 7.83 13.41t18.63 5.13q10.26 0 16.11-4.86t5.85-12.06q0-5.04-3.24-8.28c-3.24-3.24-4.89-3.87-8.19-5.13q-4.95-1.89-13.41-4.05-10.98-2.88-17.82-5.76t-11.61-8.55-4.77-15.21q0-7.2 4.32-13.32t12.24-9.72 18-3.6q15.84 0 25.56 8.01t10.44 22.05h-12.6q-.54-8.64-6.75-13.95t-17.01-5.31q-9.54 0-15.48 4.5t-5.94 11.16q0 5.76 3.51 9.45t8.73 5.76 14.04 4.59q10.62 2.88 16.92 5.58t10.8 7.92 4.68 13.86q0 7.92-4.32 14.13t-12.06 9.81-17.82 3.6q-16.92 0-27.63-7.83"/></g></svg>